<?xml version="1.0" standalone="no"?>
<!DOCTYPE svg PUBLIC "-//W3C//DTD SVG 20010904//EN"
 "http://www.w3.org/TR/2001/REC-SVG-20010904/DTD/svg10.dtd">
<svg version="1.0" xmlns="http://www.w3.org/2000/svg"
 width="628.000000pt" height="628.000000pt" viewBox="0 0 628.000000 628.000000"
 preserveAspectRatio="xMidYMid meet">
<metadata>
Created by potrace 1.11, written by Peter Selinger 2001-2013
</metadata>
<g transform="translate(0.000000,628.000000) scale(0.100000,-0.100000)"
fill="#000000" stroke="none">
<path d="M4183 4531 c-60 -38 -79 -109 -44 -167 28 -46 150 -124 193 -124 46
0 100 37 111 77 16 53 0 93 -62 162 -56 62 -61 64 -112 68 -42 3 -61 0 -86
-16z"/>
<path d="M3682 4518 c-8 -8 -12 -65 -12 -190 0 -163 -5 -200 -25 -168 -12 20
-100 57 -161 69 -171 32 -370 -63 -443 -212 -90 -185 -60 -425 70 -555 167
-167 379 -216 564 -132 69 31 75 32 85 6 4 -13 19 -26 32 -29 35 -10 124 -8
152 3 l26 10 -2 557 -3 558 -27 13 c-16 7 -28 21 -28 32 0 39 -26 50 -124 50
-58 0 -96 -4 -104 -12z m-75 -568 c50 -30 67 -72 67 -165 0 -87 -12 -120 -60
-168 -41 -41 -87 -57 -164 -57 -119 0 -168 58 -156 186 9 105 54 170 142 204
64 25 130 25 171 0z"/>
<path d="M4693 4493 c-12 -2 -34 -18 -48 -34 -35 -43 -34 -92 4 -130 l29 -29
315 0 314 0 26 24 c37 35 44 72 21 115 -30 56 -53 60 -364 59 -151 0 -285 -3
-297 -5z"/>
<path d="M865 4468 c-3 -13 -4 -263 -3 -557 3 -582 -1 -543 61 -556 15 -3 27
-12 27 -20 0 -26 40 -37 122 -33 56 2 82 8 88 18 5 8 10 83 10 167 0 140 2
153 19 163 25 13 87 13 110 0 16 -8 67 -71 184 -227 23 -30 52 -56 70 -63 17
-6 41 -20 54 -32 18 -17 39 -22 102 -26 142 -8 177 10 132 68 -87 113 -214
285 -218 296 -3 7 19 27 51 48 61 39 110 100 140 174 25 64 26 218 1 282 -45
114 -174 252 -273 292 -55 22 -70 23 -364 26 l-307 3 -6 -23z m622 -267 c41
-39 41 -155 0 -207 -35 -45 -91 -64 -194 -64 -50 0 -98 3 -107 6 -13 5 -16 26
-16 129 0 68 3 130 6 139 5 14 28 16 148 16 127 0 144 -2 163 -19z"/>
<path d="M2234 4226 c-130 -26 -248 -117 -300 -229 -74 -162 -44 -395 66 -521
43 -48 142 -118 216 -153 54 -25 69 -28 174 -28 105 0 120 2 171 28 67 32 99
35 106 7 6 -24 52 -34 134 -28 38 3 64 10 70 19 5 8 8 182 6 404 l-2 390 -27
13 c-16 7 -31 24 -34 38 -10 41 -41 54 -126 54 -65 0 -81 -3 -98 -20 -11 -11
-20 -27 -20 -36 0 -13 -5 -12 -30 6 -74 53 -205 77 -306 56z m270 -271 c54
-26 71 -67 71 -172 0 -85 -2 -94 -30 -134 -43 -61 -101 -89 -187 -89 -123 0
-162 39 -162 160 1 85 22 139 75 190 57 54 168 76 233 45z"/>
<path d="M4908 4221 c-66 -14 -171 -73 -225 -126 -99 -100 -145 -241 -123
-380 20 -127 85 -222 209 -309 135 -95 194 -116 324 -116 223 0 393 132 443
346 15 64 16 82 5 141 -7 37 -20 84 -29 103 -57 124 -183 253 -298 307 -68 31
-88 35 -173 39 -53 1 -113 -1 -133 -5z m263 -272 c27 -14 49 -50 64 -108 25
-94 -17 -202 -98 -254 -77 -50 -194 -43 -249 15 -26 28 -28 36 -28 109 0 91
16 133 73 188 64 61 175 84 238 50z"/>
<path d="M4162 4208 l-22 -11 2 -410 c3 -446 -1 -419 61 -432 15 -3 27 -12 27
-20 0 -9 12 -20 26 -25 33 -13 125 -13 158 0 l26 10 -2 402 -3 402 -24 6 c-16
4 -27 15 -32 34 -4 15 -16 34 -26 42 -22 16 -157 18 -191 2z"/>
<path d="M4714 3089 c-3 -6 -2 -14 2 -19 12 -11 57 7 49 20 -8 13 -42 13 -51
-1z"/>
<path d="M4793 3088 c2 -7 14 -13 27 -13 13 0 25 6 28 13 2 8 -7 12 -28 12
-21 0 -30 -4 -27 -12z"/>
<path d="M4870 3080 c0 -11 50 -34 58 -26 2 3 2 12 -1 21 -7 17 -57 21 -57 5z"/>
<path d="M4634 3059 c-14 -23 13 -30 37 -10 l24 20 -27 1 c-15 0 -30 -5 -34
-11z"/>
<path d="M4950 3052 c0 -14 23 -32 42 -32 21 0 23 11 6 28 -13 13 -48 16 -48
4z"/>
<path d="M4583 3027 c-25 -11 -31 -37 -9 -37 16 0 39 26 34 38 -2 5 -13 5 -25
-1z"/>
<path d="M5022 3004 c4 -20 34 -41 44 -31 8 8 -24 47 -38 47 -5 0 -8 -7 -6
-16z"/>
<path d="M4516 2958 c-19 -27 -20 -38 -5 -38 14 0 38 30 39 48 0 19 -17 14
-34 -10z"/>
<path d="M5082 2925 c12 -26 38 -34 38 -12 0 17 -20 37 -37 37 -10 0 -10 -5
-1 -25z"/>
<path d="M4471 2884 c-7 -16 -8 -31 -3 -36 11 -11 29 9 34 36 5 30 -17 29 -31
0z"/>
<path d="M2220 2870 c-13 -8 -15 -83 -18 -554 -1 -345 1 -554 8 -570 10 -27
14 -30 63 -40 18 -4 27 -13 27 -26 0 -14 9 -21 35 -26 55 -10 155 0 166 17 5
8 9 251 9 560 0 566 0 569 -41 569 -10 0 -20 11 -24 27 -12 49 -21 53 -119 53
-50 0 -98 -5 -106 -10z"/>
<path d="M5117 2873 c-7 -12 11 -53 23 -53 15 0 12 36 -4 49 -8 7 -16 8 -19 4z"/>
<path d="M1143 2829 c-10 -10 -13 -134 -13 -549 0 -507 1 -538 18 -553 10 -10
27 -17 38 -17 11 0 32 -14 47 -31 l27 -31 278 5 c283 5 321 10 400 51 82 43
121 98 142 206 11 57 11 73 -4 122 -15 52 -81 155 -119 187 -24 20 -21 34 17
74 79 84 87 232 18 342 -44 69 -130 152 -185 177 -50 22 -62 23 -352 26 -230
2 -303 0 -312 -9z m571 -290 c12 -36 0 -76 -34 -111 -29 -28 -31 -29 -127 -26
l-98 3 -3 69 c-2 38 -1 75 2 83 5 11 31 13 128 11 122 -3 123 -3 132 -29z m34
-435 c47 -32 14 -132 -54 -160 -25 -10 -64 -14 -137 -12 l-102 3 -3 79 c-2 44
-1 85 2 93 8 20 264 19 294 -3z"/>
<path d="M4449 2813 c-8 -36 -4 -123 6 -123 6 0 11 19 12 43 1 23 3 53 5 66 4
28 -18 41 -23 14z"/>
<path d="M4700 2790 c-17 -17 -20 -33 -20 -115 l0 -95 -34 0 c-39 0 -66 -21
-66 -52 0 -13 -5 -18 -13 -15 -8 3 -19 2 -26 -3 -9 -5 -6 -14 13 -33 14 -14
26 -36 26 -47 0 -36 18 -57 54 -64 45 -9 45 -8 48 -296 4 -266 7 -277 111
-346 96 -64 105 -67 219 -72 135 -6 138 -3 138 90 0 68 -1 69 -30 79 -21 8
-32 20 -38 42 -8 31 -17 36 -79 53 -18 5 -18 375 -1 392 7 7 40 12 80 12 l68
0 0 85 c0 83 -1 85 -26 91 -21 5 -25 11 -21 31 5 27 -17 43 -73 52 -34 6 -35
7 -40 63 -5 61 -13 74 -45 80 -12 2 -21 13 -23 28 -7 50 -28 60 -119 60 -70 0
-86 -3 -103 -20z"/>
<path d="M5137 2786 c-9 -23 3 -55 19 -49 18 7 18 37 0 52 -10 9 -15 8 -19 -3z"/>
<path d="M5136 2705 c-3 -9 -6 -26 -6 -37 0 -27 24 -17 28 11 5 29 -13 49 -22
26z"/>
<path d="M4460 2636 c0 -24 16 -43 27 -32 8 8 -6 56 -17 56 -6 0 -10 -11 -10
-24z"/>
<path d="M5110 2611 c-5 -11 -10 -24 -10 -30 0 -17 27 -13 34 5 16 41 -4 62
-24 25z"/>
<path d="M2955 2576 c-169 -35 -281 -139 -327 -305 -40 -145 -7 -318 84 -433
37 -48 150 -131 224 -165 54 -26 69 -28 174 -28 109 0 119 2 183 32 70 33 97
34 97 3 0 -10 10 -20 23 -24 35 -9 123 -7 151 4 l26 10 -2 402 -3 403 -23 3
c-16 3 -25 12 -29 33 -9 45 -37 59 -119 59 -88 0 -101 -4 -120 -41 l-15 -29
-32 24 c-68 51 -191 73 -292 52z m286 -282 c35 -30 59 -93 59 -155 0 -146 -79
-230 -218 -230 -102 0 -137 19 -161 90 -28 86 3 197 74 259 24 21 59 44 77 50
51 17 143 9 169 -14z"/>
<path d="M4493 2583 c-9 -3 -9 -10 -1 -28 13 -30 38 -41 38 -17 -1 23 -22 50
-37 45z"/>
<path d="M3970 2574 c-78 -16 -166 -60 -202 -100 -51 -58 -65 -201 -28 -274
25 -48 113 -120 195 -159 59 -29 181 -61 228 -61 14 0 31 -7 38 -16 11 -14 10
-19 -10 -35 -51 -41 -166 -34 -287 19 -50 22 -73 28 -86 21 -27 -14 -98 -113
-98 -136 0 -44 193 -158 308 -182 67 -14 234 -14 287 0 88 23 147 66 182 133
22 40 23 189 2 226 -33 59 -124 151 -173 175 -50 24 -148 50 -233 62 -24 3
-48 12 -54 19 -9 11 -3 18 32 34 24 11 58 20 75 20 29 0 125 -29 200 -60 36
-15 35 -15 92 56 36 47 41 79 13 93 -10 6 -28 26 -39 45 -21 35 -77 70 -164
101 -43 16 -231 28 -278 19z"/>
</g>
</svg>
